<svg xmlns="http://www.w3.org/2000/svg" id="Layer_1" data-name="Layer 1" viewBox="0 0 122.88 117.64"><title>book-shop</title><path d="M115.31,52.51v58.81a6.37,6.37,0,0,1-6.32,6.32H13.89a6.35,6.35,0,0,1-6.32-6.32V52.55a23.18,23.18,0,0,0,5.53.52v58.25a.82.82,0,0,0,.79.79H109a.79.79,0,0,0,.79-.79V52.85a21.89,21.89,0,0,0,5.11-.26l.42-.08ZM40.2,93.87,40.33,70h-2.7v30.42a45.57,45.57,0,0,1,11.18-1.59,31.62,31.62,0,0,1,10.39,1.63,22.06,22.06,0,0,0-7.12-3.86,26,26,0,0,0-10.3-1.1,1.45,1.45,0,0,1-1.58-1.34,1,1,0,0,1,0-.25ZM79.8,68.72a1.8,1.8,0,0,1,0-.22,1.5,1.5,0,0,1,0-.22V63.43a22.45,22.45,0,0,0-10,1.21,13.73,13.73,0,0,0-6.92,5.42V97.62a35.5,35.5,0,0,1,7.65-4,22.09,22.09,0,0,1,9.22-1.31V68.72ZM82.73,67h4a1.47,1.47,0,0,1,1.47,1.47v33.8a1.47,1.47,0,0,1-1.47,1.47,1.5,1.5,0,0,1-.47-.08,45.83,45.83,0,0,0-12.18-2,28.18,28.18,0,0,0-11.79,2.41,1.49,1.49,0,0,1-.83.24,1.55,1.55,0,0,1-.84-.24,28.13,28.13,0,0,0-11.78-2.41,45.7,45.7,0,0,0-12.18,2,1.51,1.51,0,0,1-.48.08,1.46,1.46,0,0,1-1.46-1.47V68.5A1.46,1.46,0,0,1,36.16,67h4.19l0-4.9a1.46,1.46,0,0,1,1.16-1.43h0a23.3,23.3,0,0,1,12.67,1A16.29,16.29,0,0,1,61.51,67a17.26,17.26,0,0,1,7.31-5.1,25.81,25.81,0,0,1,12.66-1.22,1.47,1.47,0,0,1,1.25,1.45h0V67ZM64.35,100.2a31.73,31.73,0,0,1,9.72-1.41,45.5,45.5,0,0,1,11.17,1.59V70H82.73V94a1.46,1.46,0,0,1-1.46,1.47,1.86,1.86,0,0,1-.34,0,18.63,18.63,0,0,0-9.36,1,32.43,32.43,0,0,0-7.22,3.77ZM60,97.34V70a12.94,12.94,0,0,0-6.83-5.6,20.39,20.39,0,0,0-9.87-1l-.16,29.08A28.46,28.46,0,0,1,53,93.77a25.37,25.37,0,0,1,7,3.57Zm46.1-50.94c-1.25-.58-4.33-1.39-5.3-2.35a12.25,12.25,0,0,1-2.12-2.88,12.25,12.25,0,0,1-2.12,2.88c-2.14,2.13-7,3.46-10.29,3.46S78.11,46.18,76,44.05a12.25,12.25,0,0,1-2.12-2.88,12.25,12.25,0,0,1-2.12,2.88c-2.14,2.13-7,3.46-10.29,3.46s-8.15-1.33-10.29-3.46A12.25,12.25,0,0,1,49,41.17a12.25,12.25,0,0,1-2.12,2.88c-2.14,2.13-7,3.46-10.29,3.46s-8.15-1.33-10.29-3.46a12.25,12.25,0,0,1-2.12-2.88,12.25,12.25,0,0,1-2.12,2.88c-1.41,1.4-5.12,2.46-7.08,3-3.95.48-8.61-.09-11.54-3A11.77,11.77,0,0,1,0,35.71V31.07H0a1.44,1.44,0,0,1,.17-.66L8.49,3.76C9.17,1.57,10.84.16,14.07,0h94.09c2.9.31,4.79,1.53,5.57,3.74l9,26.62a1.35,1.35,0,0,1,.19.63h0a.71.71,0,0,1,0,.14v4.58a11.77,11.77,0,0,1-3.47,8.34c-3.48,3.48-8.78,3.39-13.32,2.35Z"/></svg>